<svg xmlns="http://www.w3.org/2000/svg" viewBox="0 0 140 18.62"><defs><style>.cls-1{fill:#e30613;}</style></defs><g id="Capa_2" data-name="Capa 2"><g id="Layer_1" data-name="Layer 1"><rect class="cls-1" x="34.76" y="0.03" width="5.87" height="18.57"/><polygon class="cls-1" points="140 0.06 130.4 0.06 113.73 8.08 113.73 0 106.37 0 106.37 18.54 113.73 18.54 113.73 8.64 130.31 18.62 139.71 18.62 121.44 8.99 140 0.06"/><polygon class="cls-1" points="67.31 0.02 58 0.02 52.16 0.02 42.85 0.02 42.85 4.49 52.16 4.49 52.16 18.59 58 18.59 58 4.49 67.31 4.49 67.31 0.02"/><path class="cls-1" d="M0,0H8l17.51,13.2a.79.79,0,0,0,.67.09.57.57,0,0,0,.5-.59V0h5.9V15c-.06,2-2.4,3.56-5.32,3.56a6.81,6.81,0,0,1-3.56-.78Z"/><path class="cls-1" d="M75.4,5.81a1.58,1.58,0,0,1,1.75-1.34H88.33c1,0,1.75.58,1.75,1.34V18.56h6V5.66c0-3.09-3.33-5.6-7.42-5.6H76.92c-4.09,0-7.39,2.51-7.39,5.6v12.9H75.4Z"/><rect class="cls-1" x="98.26" y="0.03" width="5.9" height="18.57"/></g></g></svg>